<svg width="64" height="64" viewBox="0 0 64 64" fill="none" xmlns="http://www.w3.org/2000/svg">
<circle cx="32" cy="32" r="32" fill="white"/>
<path d="M44.4453 25.5117C44.4453 26.4883 44.2826 27.3867 43.957 28.207C43.6315 29.0143 43.1953 29.7305 42.6484 30.3555C42.1146 30.9805 41.4961 31.5208 40.793 31.9766C40.0898 32.4193 39.3607 32.7708 38.6055 33.0312C37.8242 33.3047 36.9844 33.513 36.0859 33.6562C35.1875 33.7995 34.3086 33.9036 33.4492 33.9688C32.5898 34.0208 31.7826 34.0469 31.0273 34.0469H29.1523V36.2148V37.7578L29.1719 39.0078L29.1914 40.2383C29.2044 41.0977 29.2305 41.8333 29.2695 42.4453C29.3086 43.0573 29.4583 43.5651 29.7188 43.9688C29.8359 44.138 30.0052 44.3138 30.2266 44.4961C30.4479 44.6784 30.7214 44.8477 31.0469 45.0039C31.3854 45.1602 31.7695 45.2969 32.1992 45.4141C32.6419 45.5182 33.1367 45.5833 33.6836 45.6094V46H18.957V45.6094C19.2695 45.5703 19.5951 45.5182 19.9336 45.4531C20.2721 45.375 20.5977 45.2839 20.9102 45.1797C21.2357 45.0625 21.5286 44.9258 21.7891 44.7695C22.0625 44.6003 22.2904 44.3984 22.4727 44.1641C22.6159 43.9948 22.7266 43.7539 22.8047 43.4414C22.8828 43.1159 22.9414 42.7578 22.9805 42.3672C23.0326 41.9635 23.0651 41.5404 23.0781 41.0977C23.0911 40.6419 23.1042 40.1992 23.1172 39.7695C23.1302 39.4049 23.1367 38.9167 23.1367 38.3047C23.1497 37.6927 23.1562 37.0156 23.1562 36.2734C23.1693 35.5312 23.1758 34.75 23.1758 33.9297C23.1888 33.1094 23.1953 32.2956 23.1953 31.4883V23.6758C23.1953 23.194 23.1888 22.7057 23.1758 22.2109C23.1628 21.7031 23.1302 21.2279 23.0781 20.7852C23.0391 20.3424 22.974 19.9518 22.8828 19.6133C22.7917 19.2617 22.668 19.0013 22.5117 18.832C22.3164 18.6237 22.0755 18.4544 21.7891 18.3242C21.5156 18.181 21.2161 18.0638 20.8906 17.9727C20.5781 17.8815 20.2396 17.8099 19.875 17.7578C19.5234 17.7057 19.1654 17.6536 18.8008 17.6016V17.1914C18.9701 17.1914 19.3281 17.1914 19.875 17.1914C20.4219 17.1784 21.0729 17.1719 21.8281 17.1719C22.5964 17.1719 23.4297 17.1654 24.3281 17.1523C25.2266 17.1393 26.112 17.1328 26.9844 17.1328C27.8568 17.1328 28.6771 17.1328 29.4453 17.1328C30.2135 17.1198 30.8516 17.1133 31.3594 17.1133C32.2578 17.1133 33.1107 17.1328 33.918 17.1719C34.7253 17.2109 35.4935 17.2826 36.2227 17.3867C36.9518 17.4909 37.6484 17.6471 38.3125 17.8555C38.9766 18.0508 39.6211 18.3112 40.2461 18.6367C40.8581 18.9622 41.418 19.3529 41.9258 19.8086C42.4466 20.2643 42.8893 20.7852 43.2539 21.3711C43.6315 21.944 43.9245 22.582 44.1328 23.2852C44.3411 23.9753 44.4453 24.7174 44.4453 25.5117ZM38.2344 25.3164C38.2344 23.7669 37.9414 22.3997 37.3555 21.2148C36.7826 20.0169 35.9427 19.1185 34.8359 18.5195C34.2891 18.2201 33.7096 18.0182 33.0977 17.9141C32.4987 17.8099 31.8802 17.7578 31.2422 17.7578C30.7604 17.7578 30.3893 17.7773 30.1289 17.8164C29.8815 17.8555 29.6797 17.888 29.5234 17.9141C29.4844 18.1094 29.4453 18.2852 29.4062 18.4414C29.3802 18.5846 29.3542 18.7604 29.3281 18.9688C29.3021 19.1771 29.276 19.4375 29.25 19.75C29.237 20.0625 29.2174 20.4661 29.1914 20.9609C29.1784 21.5729 29.1654 22.2891 29.1523 23.1094C29.1523 23.9297 29.1458 24.7826 29.1328 25.668C29.1328 26.5534 29.1328 27.4323 29.1328 28.3047C29.1458 29.1641 29.1523 29.9518 29.1523 30.668V32.4844V33.4414C30.0898 33.4414 30.9557 33.4089 31.75 33.3438C32.5443 33.2656 33.293 33.0833 33.9961 32.7969C34.7122 32.5104 35.3372 32.1198 35.8711 31.625C36.4049 31.1172 36.8477 30.5378 37.1992 29.8867C37.5508 29.2357 37.8112 28.526 37.9805 27.7578C38.1497 26.9766 38.2344 26.1628 38.2344 25.3164Z" fill="black"/>
</svg>
